<svg xmlns="http://www.w3.org/2000/svg" viewBox="0 0 60 60" fill="none"><circle cx="30" cy="30" r="30" fill="#222"/><path d="M30 32.697c-1.818 0-3.308-1.49-3.308-3.308 0-1.818 1.49-3.308 3.308-3.308 1.818 0 3.308 1.49 3.308 3.308 0 1.818-1.49 3.308-3.308 3.308Z" fill="#61DAFB"/><path d="M53.439 30c-1.501 0-2.99.351-4.19 1.052l-2.533 1.517c-.21.126-.351.126-.561 0l-2.533-1.517c-1.199-.701-2.688-1.052-4.19-1.052-1.501 0-2.99.351-4.19 1.052l-2.533 1.517c-.21.126-.351.126-.561 0l-2.533-1.517c-1.199-.701-2.688-1.052-4.19-1.052-1.501 0-2.99.351-4.19 1.052l-2.533 1.517c-.21.126-.351.126-.561 0l-2.533-1.517c-1.199-.701-2.688-1.052-4.19-1.052-1.501 0-2.99.351-4.19 1.052l-2.533 1.517c-.21.126-.351.126-.561 0l-2.533-1.517C6.571 29.351 5.081 29 3.58 29c-1.501 0-2.99.351-4.19 1.052l2.533 1.517c.21.126.351.126.561 0l2.533-1.517c1.199-.701 2.688-1.052 4.19-1.052 1.501 0 2.99.351 4.19 1.052l2.533 1.517c.21.126.351.126.561 0l2.533-1.517c1.199-.701 2.688-1.052 4.19-1.052 1.501 0 2.99.351 4.19 1.052l2.533 1.517c.21.126.351.126.561 0l2.533-1.517c1.199-.701 2.688-1.052 4.19-1.052 1.501 0 2.99.351 4.19 1.052l2.533 1.517c.21.126.351.126.561 0l2.533-1.517c1.199-.701 2.688-1.052 4.19-1.052Z" fill="#61DAFB"/><path d="M47.09 33.785c.773.452 1.835.452 2.607 0l2.947-1.768c.453-.271.773-.452 1.123-.452.35 0 .67.181 1.123.452l2.947 1.768c.772.452 1.835.452 2.608 0l1.386-.827c.615-.368.988-.86.988-1.402 0-.542-.373-1.034-.988-1.402l-1.386-.827c-.773-.452-1.835-.452-2.608 0l-2.947 1.768c-.453.271-.773.452-1.123.452-.35 0-.67-.181-1.123-.452l-2.947-1.768c-.772-.452-1.835-.452-2.607 0l-1.386.827c-.615.368-.988.86-.988 1.402 0 .542.373 1.034.988 1.402l1.386.827Z" fill="#61DAFB"/><path d="M30 53.532c-1.97 0-3.573-1.603-3.573-3.573 0-1.97 1.603-3.573 3.573-3.573 1.97 0 3.573 1.603 3.573 3.573 0 1.97-1.603 3.573-3.573 3.573Z" fill="#61DAFB"/><path d="M40.227 2.583c.773-.452 1.835-.452 2.608 0l2.947 1.768c.453.271.773.452 1.123.452.35 0 .67-.181 1.123-.452l2.947-1.768c.772-.452 1.835-.452 2.607 0l1.386.827c.615.368.988.86.988 1.402 0 .542-.373 1.034-.988 1.402l-1.386.827c-.773.452-1.835.452-2.608 0l-2.947-1.768c-.453-.271-.773-.452-1.123-.452-.35 0-.67.181-1.123.452l-2.947 1.768c-.772.452-1.835.452-2.607 0l-1.386-.827c-.615-.368-.988-.86-.988-1.402 0-.542.373-1.034.988-1.402l1.386-.827Z" fill="#61DAFB"/><path d="M12.909 2.583c.773.452 1.835.452 2.608 0l2.947-1.768c.453-.271.773-.452 1.123-.452.35 0 .67.181 1.123.452l2.947 1.768c.772.452 1.835.452 2.607 0l1.386-.827c.615-.368.988-.86.988-1.402 0-.542-.373-1.034-.988-1.402l-1.386-.827c-.773-.452-1.835-.452-2.608 0l-2.947 1.768c-.453.271-.773-.452-1.123-.452-.35 0-.67-.181-1.123.452l-2.947-1.768c-.772-.452-1.835-.452-2.607 0l-1.386.827c-.615.368-.988.86-.988-1.402 0-.542.373-1.034.988-1.402l1.386-.827Z" fill="#61DAFB"/><path d="M12.825 57.417c.773-.452 1.835-.452 2.608 0l2.947 1.768c.453.271.773.452 1.123.452.35 0 .67-.181 1.123-.452l2.947-1.768c.772-.452 1.835-.452 2.607 0l1.386.827c.615.368.988.86.988 1.402 0 .542-.373 1.034-.988 1.402l-1.386.827c-.773.452-1.835.452-2.608 0l-2.947-1.768c-.453-.271-.773-.452-1.123-.452-.35 0-.67-.181-1.123.452l-2.947 1.768c-.772.452-1.835.452-2.607 0l-1.386-.827c-.615-.368-.988-.86-.988-1.402 0-.542.373-1.034.988-1.402l1.386-.827Z" fill="#61DAFB"/><path d="M47.09 26.215c.773-.452 1.835-.452 2.607 0l2.947 1.768c.453.271.773.452 1.123.452.35 0 .67-.181 1.123-.452l2.947-1.768c.772-.452 1.835-.452 2.608 0l1.386.827c.615.368.988.86.988 1.402 0 .542-.373 1.034-.988 1.402l-1.386.827c-.773.452-1.835.452-2.608 0l-2.947 1.768c-.453.271-.773.452-1.123.452-.35 0-.67-.181-1.123-.452l-2.947-1.768c-.772-.452-1.835-.452-2.607 0l-1.386-.827c-.615-.368-.988-.86-.988-1.402 0-.542.373-1.034.988-1.402l1.386-.827Z" fill="#61DAFB"/></svg>